PathFileType	4	(X/Y/Z)	C:/Users/beibeiliu/ov580/test_trc/User3\sequence.13_training_dense_right.trc
DataRate	CameraRate	NumFrames	NumMarkers	Units	OrigDataRate	OrigDataStartFrame	OrigNumFrames
120	120	20	19	mm	120	29	85
Frame#	Time	ThumbCMC			ThumbMCP			ThumbIP			ThumbTip			IndexMCP			IndexPIP			IndexTip			MiddleMCP			MiddlePIP			MiddleTip			RingMCP			RingPIP			RingTip			PinkyMCP			PinkyPIP			PinkyTip			BackHand1			BackHand2			BackHand3	
		X0	Y0	Z0	X1	Y1	Z1	X2	Y2	Z2	X3	Y3	Z3	X4	Y4	Z4	X5	Y5	Z5	X6	Y6	Z6	X7	Y7	Z7	X8	Y8	Z8	X9	Y9	Z9	X10	Y10	Z10	X11	Y11	Z11	X12	Y12	Z12	X13	Y13	Z13	X14	Y14	Z14	X15	Y15	Z15	X16	Y16	Z16	X17	Y17	Z17	X18	Y18	Z18	
28	0.233333	208.349	28.5416	15.5735	203.645	34.0478	-16.9643	197.065	34.1875	-43.1785	182.043	26.4274	-64.5182	205.825	-13.8184	-49.9986	191.513	-4.37306	-73.3482	169.436	22.9671	-76.5868	186.669	-24.4605	-48.0646	167.909	-5.07945	-65.4573	154.706	24.9288	-40.3772	169.521	-30.6204	-37.6644	149.882	-11.3147	-50.2213	147.176	13.3018	-28.6087	154.825	-34.9879	-21.4045	140.339	-15.7103	-35.9481	139.126	7.61579	-17.8878	190.548	-32.348	19.2637	188.349	-22.8068	50.1051	215.488	-7.67368	22.0613	
29	0.241667	223.916	25.4897	24.3495	223.592	29.8675	-8.67747	225.065	27.625	-41.5406	213.505	12.2784	-61.3768	235.357	-22.9577	-38.5976	227.422	-16.3502	-64.4319	207.631	4.86837	-75.204	220.41	-35.4361	-40.2866	202.443	-18.4307	-61.8626	185.528	14.1764	-45.2053	202.555	-41.5858	-29.1549	185.903	-24.123	-51.1934	176.079	3.27136	-35.0058	186.548	-44.9477	-16.7486	172.535	-29.5259	-38.1864	163.675	-5.39378	-26.2027	211.108	-37.1676	26.4362	202.522	-26.266	56.5889	232.863	-6.61385	36.0546	
30	0.25	237.814	33.0828	27.7372	239.812	36.4851	-4.766	241.646	34.0341	-32.9807	237.493	21.8061	-53.8969	268.618	-9.9164	-26.2029	257.613	-10.0032	-55.6964	239.061	6.06354	-70.3286	254.226	-27.3325	-30.4746	237.624	-15.6139	-57.8371	210.23	8.74607	-47.231	237.816	-38.539	-24.9035	223.201	-25.4526	-49.0929	199.975	-1.88674	-34.7935	221.93	-43.188	-13.2798	211.98	-32.4064	-36.5582	195.035	-11.1871	-30.8681	233.891	-31.0806	33.5964	222.102	-20.6105	58.0645	249.262	1.41106	44.7482	
31	0.258333	239.51	47.3578	31.5472	243.621	51.5088	-4.15431	247.954	51.6947	-30.6623	249.983	40.333	-55.3366	286.433	15.6569	-17.84	280.495	17.1335	-51.8135	255.501	23.7748	-67.4533	282.387	-2.85006	-26.8567	264.788	1.92299	-53.9717	227.77	19.5597	-47.3211	270.484	-16.408	-22.1998	252.047	-12.1569	-46.0488	226.839	4.31992	-38.7477	255.634	-30.7749	-10.4907	246.278	-23.3362	-34.6054	222.701	-5.5352	-31.3789	260.466	-11.8453	35.7624	243.925	-6.5249	63.1296	260.762	18.7335	47.8038	
32	0.266667	226.921	61.8621	32.1642	231.106	67.8378	-5.12355	236.736	72.4118	-33.6207	244.794	61.536	-56.0375	287.042	57.7089	-17.1432	279.768	58.6305	-52.9972	257.971	53.0271	-66.9751	291.496	38.8844	-22.7892	274.15	37.8742	-54.3	236.906	28.2918	-47.5876	288.641	19.0719	-20.2976	272.028	16.5124	-46.6271	238.674	14.5385	-36.2323	282.449	1.01826	-9.8991	270.527	-2.32541	-36.4683	239.931	5.93789	-31.48	277.569	15.2426	37.5926	259.252	9.2316	59.2349	263.596	44.951	45.5005	
33	0.275	206.992	58.3677	25.7995	202.105	66.0002	-5.88975	204.952	73.2282	-35.4393	217.954	73.6883	-61.1793	254.694	94.7176	-25.6349	250.96	90.4145	-55.146	237.514	68.706	-71.4103	273.62	73.9714	-26.6147	259.755	65.0994	-58.0676	232.317	39.4415	-50.6983	281.63	56.7401	-28.0411	268.569	43.5643	-50.5643	244.47	25.3601	-39.7298	286.863	38.8406	-17.7121	276.312	29.7343	-41.5035	245.866	16.0283	-37.5757	273.083	50.4478	33.8352	259.918	36.3802	53.6733	239.329	65.6174	42.7782	
34	0.283333	190.414	49.2063	17.7579	180.373	55.3295	-14.4559	182.141	59.644	-39.3253	189.771	64.4869	-67.5684	221.874	95.9803	-32.4695	213.362	90.0848	-66.4921	209.459	65.4238	-78.0477	238.195	89.1653	-39.6804	233.05	71.3237	-64.9741	219.869	34.8872	-50.2987	254.72	74.5844	-34.5162	250.156	56.2633	-56.5588	229.746	29.5837	-41.7578	268.253	59.3612	-25.7748	261.401	44.7778	-48.1705	240.461	24.8067	-42.9961	253.196	63.0557	25.1535	245.206	46.104	48.05	217.889	68.8862	32.718	
35	0.291667	173.366	37.5762	16.6046	161.461	40.2292	-19.348	157.708	41.0037	-46.6518	170.094	42.0965	-69.1398	189.834	85.8459	-46.8167	190.674	73.6779	-73.1681	185.171	44.7405	-83.0655	213.216	79.184	-52.6302	209.504	54.8031	-73.7818	206.729	21.9671	-53.4386	233.242	68.2926	-43.9793	224.806	44.1353	-64.7453	217.097	18.369	-42.0392	245.681	59.1879	-37.6495	241.241	42.6792	-54.4461	226.924	17.0265	-43.1895	229.524	68.9868	15.8088	229.217	50.28	42.8425	199.933	65.5501	25.8634	
36	0.3	158.412	31.544	12.1453	146.988	21.9607	-15.5479	141.722	19.1331	-49.401	150.546	13.4468	-70.2426	174.509	63.7461	-56.0708	167.599	45.6381	-81.5271	170.212	15.6617	-82.1623	190.806	56.7771	-61.7547	190.375	29.4025	-76.8982	185.082	-0.828098	-48.548	212.633	49.39	-52.8092	207.734	19.5802	-65.8719	199.052	1.9745	-39.5939	230.865	41.7523	-41.6029	222.447	15.689	-57.5799	210.487	-0.175244	-42.2048	213.394	60.7748	4.42448	213.587	53.4522	30.9061	182.966	59.2286	19.7909	
37	0.308333	147.058	22.8273	17.497	131.195	6.11765	-9.45335	125.334	-6.85142	-40.9252	134.809	-18.4066	-60.2501	159.296	35.8825	-58.9908	155.157	12.8397	-80.3982	147.565	-18.4352	-72.307	178.766	27.1417	-65.2535	175.682	-4.64442	-72.3683	170.667	-24.7445	-38.1762	198.473	22.0681	-56.1029	190.567	-10.8257	-60.0265	180.705	-20.5395	-32.5748	216.751	14.2583	-45.1997	205.718	-12.283	-50.1484	190.477	-19.9729	-26.3435	203.001	49.7302	-2.80885	206.476	48.5888	23.5967	171.335	52.7184	7.12533	
38	0.316667	133.134	24.4901	21.8523	115.888	2.12153	0.765951	106.222	-17.6901	-24.1537	111.475	-35.7464	-37.862	141.911	12.1128	-58.8269	130.522	-14.3743	-70.1884	124.091	-39.8262	-52.34	162.873	1.27956	-59.129	148.748	-28.7529	-60.2832	140.558	-41.0156	-21.3096	176.193	-6.71487	-52.3658	169.139	-34.4605	-48.3511	155.92	-36.0378	-16.4418	196.352	-10.2535	-37.18	185.44	-35.4751	-35.996	168.465	-34.0633	-11.8269	190.06	33.9608	-7.38088	193.196	41.4894	18.1106	162.247	47.5365	3.23372	
39	0.325	118.281	38.3628	24.5733	96.9924	14.8575	5.45806	84.7034	-5.63375	-10.6912	83.3689	-26.817	-19.1156	118.273	11.7132	-47.7344	98.2512	-13.4599	-57.7323	83.4846	-33.5122	-35.7299	130.106	-8.59587	-52.0481	111.404	-35.833	-42.6446	106.484	-36.3929	-3.75172	147.13	-23.0153	-41.5562	128.013	-42.5234	-29.9392	121.315	-32.3514	1.98481	161.682	-26.2909	-28.0845	143.197	-46.3565	-17.4286	134.04	-32.1429	8.2448	177.754	20.1033	-8.87511	186.277	31.4413	18.8973	153.049	46.5264	0.420018	
40	0.333333	119.938	56.7235	18.7212	90.6893	45.3993	7.40031	68.4361	29.6051	-6.70224	63.6754	5.44545	-14.8485	102.725	23.2175	-46.7973	75.2128	5.85782	-49.8069	53.1693	-3.0225	-24.769	109.09	-2.47373	-45.6033	79.4418	-12.9929	-38.2284	71.9961	-9.45435	2.14621	119.39	-17.7787	-32.0845	90.8516	-27.102	-21.6589	88.7329	-16.1832	9.48883	129.046	-30.5725	-18.3019	103.172	-36.6574	-6.57702	99.9379	-19.8902	17.3691	161.468	12.5452	-8.32405	177.822	21.8089	16.2112	153.299	42.8661	-0.280967	
41	0.341667	137.099	62.1318	12.9412	106.95	69.0434	-0.846533	81.5339	57.689	-17.8365	63.9161	37.5152	-23.4352	105.961	34.0428	-51.4354	73.3643	31.1315	-54.0383	51.0847	36.7389	-34.9245	98.7075	10.0282	-49.1249	68.2438	9.96369	-39.8533	62.4127	21.0065	-1.82779	100.611	-8.89114	-33.8818	73.5931	-4.15711	-27.0006	74.983	11.6933	6.79344	108.314	-22.7759	-14.811	79.1849	-13.1491	-9.78023	79.2744	0.917499	13.2851	155.704	1.2625	-4.84747	167.646	6.32569	17.5954	160.303	37.528	-2.87736	
42	0.35	158.968	53.6304	6.80842	137.619	69.2655	-11.5978	112.387	71.0622	-34.082	88.7871	58.9775	-42.6716	123.5	29.8104	-58.7876	98.4254	40.2018	-66.2598	76.4992	56.2043	-51.7865	110.075	11.2678	-55.0051	83.6705	24.7762	-54.2771	75.4364	44.994	-19.6248	107.598	-0.56536	-40.1343	79.3052	12.598	-38.1263	80.2442	32.0701	-13.1247	103.01	-17.2255	-19.0098	78.2994	-3.3463	-22.1862	80.0749	20.863	-1.24253	153.607	-9.51771	-1.71929	163.721	-8.29169	22.0242	170.193	20.4845	-4.61223	
43	0.358333	182.289	42.5485	5.35701	168.008	55.0328	-19.4123	153.211	61.6343	-45.1723	133	57.4562	-59.1034	158.055	13.5834	-60.395	136.066	34.6367	-81.4875	118.632	54.4699	-73.9555	140.404	2.23502	-57.9487	117.839	26.3739	-69.55	109.029	49.5919	-41.0353	128.618	-9.35815	-46.2767	105.245	14.2199	-53.9517	104.657	32.4779	-28.4506	115.101	-20.1791	-27.9732	99.1402	-0.889998	-40.1795	99.9706	23.3333	-22.3282	160.145	-19.134	2.7348	166.134	-17.5731	27.833	183.041	2.33775	5.79575	
44	0.366667	196.546	28.1956	6.7584	192.704	38.8791	-20.2218	187.165	42.1677	-49.9021	172.979	37.9802	-71.5805	192.956	-7.05663	-60.7343	181.412	7.43191	-83.5112	158.738	30.1545	-86.3103	173.293	-15.8261	-59.3897	153.752	5.51655	-75.299	144.437	34.801	-51.7488	155.931	-24.6248	-50.2653	140.02	-1.51203	-63.9058	137.301	19.8568	-40.9815	143.678	-29.5886	-31.2255	128.796	-14.8614	-50.4016	131.84	10.5492	-39.3523	174.075	-31.2156	6.56084	172.048	-19.9312	38.2033	199.959	-6.6163	15.6836	
45	0.375	210.357	27.5732	11.6319	211.306	32.1661	-21.1184	213.266	31.7204	-51.199	205.393	23.3164	-75.4079	224.541	-17.8438	-44.2551	218.293	-7.17211	-75.6149	196.662	13.5456	-88.6301	210.197	-28.074	-49.912	195.742	-12.0966	-74.1343	173.073	17.4	-56.5884	192.795	-36.2319	-39.7103	176.118	-19.3151	-63.44	166.529	6.11143	-45.5825	173.874	-45.2334	-28.8764	167.448	-34.8241	-50.6635	154.623	-5.43137	-44.8502	196.861	-30.7446	16.576	185.376	-22.5152	45.6938	219.679	-5.61014	23.2379	
46	0.383333	213.774	41.5723	12.7788	214.487	41.649	-18.3736	219.386	39.4501	-51.7764	215.718	29.9171	-69.3607	248.659	1.75822	-39.2642	239.765	1.88153	-69.7277	214.295	15.1144	-86.9973	237.499	-16.8589	-43.0975	221.166	-6.01686	-71.1671	190.351	13.7048	-58.6612	224.163	-28.7749	-35.2757	205.888	-19.0439	-61.8054	186.137	2.39758	-46.2613	207.704	-44.1817	-26.4198	195.73	-34.0817	-51.4134	182.264	-11.3396	-47.363	217.112	-25.913	17.7611	204.545	-17.6254	44.2734	228.824	7.31255	28.9432	
47	0.391667	199.096	53.6386	15.8736	200.151	61.5328	-19.7952	204.464	62.4887	-49.3377	209.509	48.1688	-70.3696	250.965	41.4252	-37.9343	243.772	36.0165	-70.837	219.292	41.0239	-87.1553	250.302	15.6266	-45.2183	228.783	19.5898	-72.5087	192.19	25.1873	-59.1032	243.324	-0.586276	-36.3213	221.472	-1.50612	-62.8665	195.699	9.34242	-49.6575	235.189	-18.4852	-27.6169	225.207	-13.456	-52.0086	198.61	-2.71425	-51.5084	234.887	-0.859263	20.7483	217.359	2.65203	46.0308	227.252	34.8216	31.4572	
